HIERARCHY
ROOT hip
{
  OFFSET 17.9283 80.2092 252.017
  CHANNELS 6 Xposition Yposition Zposition Zrotation Xrotation Yrotation
  JOINT abdomen
  {
    OFFSET 0 20.6881 -0.73152
    CHANNELS 3 Zrotation Xrotation Yrotation
    JOINT chest
    {
      OFFSET 0 11.7043 -0.48768
      CHANNELS 3 Zrotation Xrotation Yrotation
      JOINT neck
      {
        OFFSET 0 22.1894 -2.19456
        CHANNELS 3 Zrotation Xrotation Yrotation
        JOINT head
        {
          OFFSET -0.24384 7.07133 1.2192
          CHANNELS 3 Zrotation Xrotation Yrotation
          JOINT leftEye
          {
            OFFSET 4.14528 8.04674 8.04672
            CHANNELS 3 Zrotation Xrotation Yrotation
            End Site
            {
              OFFSET 1 0 0
            }
          }
          JOINT rightEye
          {
            OFFSET -3.6576 8.04674 8.04672
            CHANNELS 3 Zrotation Xrotation Yrotation
            End Site
            {
              OFFSET 1 0 0
            }
          }
        }
      }
      JOINT rCollar
      {
        OFFSET -2.68224 19.2634 -4.8768
        CHANNELS 3 Zrotation Xrotation Yrotation
        JOINT rShldr
        {
          OFFSET -8.77824 -1.95073 1.46304
          CHANNELS 3 Zrotation Xrotation Yrotation
          JOINT rForeArm
          {
            OFFSET -28.1742 -1.7115 0.48768
            CHANNELS 3 Zrotation Xrotation Yrotation
            JOINT rHand
            {
              OFFSET -22.5879 0.773209 7.07136
              CHANNELS 3 Zrotation Xrotation Yrotation
              JOINT rThumb1
              {
                OFFSET -1.2192 -0.487915 3.41376
                CHANNELS 3 Zrotation Xrotation Yrotation
                JOINT rThumb2
                {
                  OFFSET -3.37035 -0.52449 3.41376
                  CHANNELS 3 Zrotation Xrotation Yrotation
                  End Site
                  {
                    OFFSET -1.78271 -1.18214 1.43049
                  }
                }
              }
              JOINT rIndex1
              {
                OFFSET -7.75947 0.938293 5.60832
                CHANNELS 3 Zrotation Xrotation Yrotation
                JOINT rIndex2
                {
                  OFFSET -2.54057 -0.884171 1.56538
                  CHANNELS 3 Zrotation Xrotation Yrotation
                  End Site
                  {
                    OFFSET -1.62519 -0.234802 1.16502
                  }
                }
              }
              JOINT rMid1
              {
                OFFSET -8.24714 1.18213 3.41376
                CHANNELS 3 Zrotation Xrotation Yrotation
                JOINT rMid2
                {
                  OFFSET -3.10165 -0.590103 1.0647
                  CHANNELS 3 Zrotation Xrotation Yrotation
                  End Site
                  {
                    OFFSET -2.48547 -0.328903 0.83742
                  }
                }
              }
              JOINT rRing1
              {
                OFFSET -8.82822 0.546677 1.51678
                CHANNELS 3 Zrotation Xrotation Yrotation
                JOINT rRing2
                {
                  OFFSET -2.60934 -0.819778 -0.0198488
                  CHANNELS 3 Zrotation Xrotation Yrotation
                  End Site
                  {
                    OFFSET -2.33842 -0.294052 0.168128
                  }
                }
              }
              JOINT rPinky1
              {
                OFFSET -8.27202 -0.0477905 -0.4584
                CHANNELS 3 Zrotation Xrotation Yrotation
                JOINT rPinky2
                {
                  OFFSET -1.82734 -0.647385 -0.700984
                  CHANNELS 3 Zrotation Xrotation Yrotation
                  End Site
                  {
                    OFFSET -1.69225 -0.51767 -0.607171
                  }
                }
              }
            }
          }
        }
      }
      JOINT lCollar
      {
        OFFSET 2.68224 19.2634 -4.8768
        CHANNELS 3 Zrotation Xrotation Yrotation
        JOINT lShldr
        {
          OFFSET 8.77824 -1.95073 1.46304
          CHANNELS 3 Zrotation Xrotation Yrotation
          JOINT lForeArm
          {
            OFFSET 28.1742 -1.7115 0.48768
            CHANNELS 3 Zrotation Xrotation Yrotation
            JOINT lHand
            {
              OFFSET 22.5879 0.773209 7.07136
              CHANNELS 3 Zrotation Xrotation Yrotation
              JOINT lThumb1
              {
                OFFSET 1.2192 -0.487915 3.41376
                CHANNELS 3 Zrotation Xrotation Yrotation
                JOINT lThumb2
                {
                  OFFSET 3.37035 -0.52449 3.41376
                  CHANNELS 3 Zrotation Xrotation Yrotation
                  End Site
                  {
                    OFFSET 1.78271 -1.18214 1.43049
                  }
                }
              }
              JOINT lIndex1
              {
                OFFSET 7.75947 0.938293 5.60832
                CHANNELS 3 Zrotation Xrotation Yrotation
                JOINT lIndex2
                {
                  OFFSET 2.54057 -0.884171 1.56538
                  CHANNELS 3 Zrotation Xrotation Yrotation
                  End Site
                  {
                    OFFSET 1.62519 -0.234802 1.16502
                  }
                }
              }
              JOINT lMid1
              {
                OFFSET 8.24714 1.18213 3.41376
                CHANNELS 3 Zrotation Xrotation Yrotation
                JOINT lMid2
                {
                  OFFSET 3.10165 -0.590103 1.0647
                  CHANNELS 3 Zrotation Xrotation Yrotation
                  End Site
                  {
                    OFFSET 2.48547 -0.328903 0.83742
                  }
                }
              }
              JOINT lRing1
              {
                OFFSET 8.82822 0.546677 1.51678
                CHANNELS 3 Zrotation Xrotation Yrotation
                JOINT lRing2
                {
                  OFFSET 2.60934 -0.819778 -0.0198488
                  CHANNELS 3 Zrotation Xrotation Yrotation
                  End Site
                  {
                    OFFSET 2.33842 -0.294052 0.168128
                  }
                }
              }
              JOINT lPinky1
              {
                OFFSET 8.27202 -0.0477905 -0.4584
                CHANNELS 3 Zrotation Xrotation Yrotation
                JOINT lPinky2
                {
                  OFFSET 1.82734 -0.647385 -0.700984
                  CHANNELS 3 Zrotation Xrotation Yrotation
                  End Site
                  {
                    OFFSET 1.69225 -0.51767 -0.607171
                  }
                }
              }
            }
          }
        }
      }
    }
  }
  JOINT rButtock
  {
    OFFSET -8.77824 4.35084 1.2192
    CHANNELS 3 Zrotation Xrotation Yrotation
    JOINT rThigh
    {
      OFFSET 0 -1.70687 -2.19456
      CHANNELS 3 Zrotation Xrotation Yrotation
      JOINT rShin
      {
        OFFSET 0 -36.8199 0.73152
        CHANNELS 3 Zrotation Xrotation Yrotation
        JOINT rFoot
        {
          OFFSET 0.73152 -45.1104 -5.12064
          CHANNELS 3 Zrotation Xrotation Yrotation
          End Site
          {
            OFFSET -1.1221 -3.69964 12.103
          }
        }
      }
    }
  }
  JOINT lButtock
  {
    OFFSET 8.77824 4.35084 1.2192
    CHANNELS 3 Zrotation Xrotation Yrotation
    JOINT lThigh
    {
      OFFSET 0 -1.70687 -2.19456
      CHANNELS 3 Zrotation Xrotation Yrotation
      JOINT lShin
      {
        OFFSET 0 -36.8199 0.73152
        CHANNELS 3 Zrotation Xrotation Yrotation
        JOINT lFoot
        {
          OFFSET -0.73152 -45.1104 -5.12064
          CHANNELS 3 Zrotation Xrotation Yrotation
          End Site
          {
            OFFSET 1.1221 -3.69964 12.103
          }
        }
      }
    }
  }
}
MOTION
Frames:	6
Frame Time:	0.00833333
7.48955 81.7271 -86.3657 9.36827 6.80659 2.0644 -11.6154 7.52605 1.43481 3.80399 -5.63423 0.316604 7.37013 -9.20213 0.988521 -11.2004 1.62097 -1.08469 -0 0 0 -0 0 0 6.77064e-014 1.48693e-014 -3.24539e-015 80.4594 19.693 -7.76461 -12.0675 -5.4962 21.7405 -0.0359909 -5.38039 -0.758443 -5.26019e-010 -1.93022e-010 4.19444e-010 -9.09846e-010 -3.33344e-010 7.2506e-010 -5.26014e-010 -1.93021e-010 4.19439e-010 7.73091 5.47488 0.417314 -5.26023e-010 -1.93022e-010 4.19443e-010 2.90554 0.965183 0.102902 -5.26014e-010 -1.93022e-010 4.19447e-010 10.2786 0.731801 0.0259123 -5.26024e-010 -1.9302e-010 4.19454e-010 2.22167 -0.733487 -0.20892 6.76871e-014 1.48745e-014 -3.60259e-015 -81.5127 21.2305 6.45185 9.56038 -3.87903 -16.9786 0.0344094 -5.29642 0.746453 -1.79589e-010 -4.74516e-010 -6.49315e-010 -3.0855e-010 -8.20649e-010 -1.12483e-009 -1.79596e-010 -4.74517e-010 -6.49315e-010 -7.73091 5.47488 -0.417314 -1.79587e-010 -4.74516e-010 -6.4932e-010 -2.90554 0.965183 -0.102902 -1.79594e-010 -4.74516e-010 -6.49315e-010 -10.2786 0.731801 -0.0259123 -1.79586e-010 -4.74514e-010 -6.49318e-010 -2.22167 -0.733487 0.20892 -2.03217e-016 0 -3.88251e-019 -19.8421 -35.7212 -14.8463 -2.24365 71.3382 2.76355 -5.53491 -4.92932 -21.1374 2.03217e-016 0 3.88251e-019 -12.6436 -21.6236 -2.28866 0.161133 31.5876 -0.467368 4.60775 -10.6336 15.7074 
7.66502 81.665 -84.9713 9.75695 6.57884 1.99006 -12.0373 7.57576 1.13987 3.99632 -5.67195 0.24373 7.44364 -9.06605 1.06966 -11.2578 1.7388 -0.925441 -0 0 0 -0 0 0 1.492e-013 -3.64791e-014 -4.90719e-014 80.5384 19.396 -8.46843 -11.8953 -5.3752 21.4075 -0.0348195 -5.25877 -0.741228 -1.66713e-009 -1.72063e-010 -2.88615e-010 -2.88008e-009 -2.98438e-010 -5.03181e-010 -1.66712e-009 -1.72061e-010 -2.88623e-010 7.73091 5.47488 0.417314 -1.66713e-009 -1.72062e-010 -2.88617e-010 2.90554 0.965183 0.102902 -1.66712e-009 -1.72062e-010 -2.88617e-010 10.2786 0.731801 0.0259123 -1.66713e-009 -1.7206e-010 -2.88609e-010 2.22167 -0.733487 -0.20892 1.49183e-013 -3.64745e-014 -4.937e-014 -81.0722 22.5611 5.36632 9.91462 -4.09018 -17.6408 0.0485911 -6.2933 0.888041 -1.03635e-009 -4.05419e-010 -5.55793e-010 -1.78749e-009 -6.99879e-010 -9.65777e-010 -1.03636e-009 -4.0542e-010 -5.55791e-010 -7.73091 5.47488 -0.417314 -1.03634e-009 -4.05419e-010 -5.55794e-010 -2.90554 0.965183 -0.102902 -1.03635e-009 -4.05418e-010 -5.55789e-010 -10.2786 0.731801 -0.0259123 -1.03634e-009 -4.05417e-010 -5.55791e-010 -2.22167 -0.733487 0.20892 -2.03217e-016 0 -3.88251e-019 -20.504 -37.4293 -15.1306 -2.11194 70.5906 2.66219 -5.98123 -5.79739 -21.5717 2.03217e-016 0 3.88251e-019 -13.0665 -20.1516 -2.1682 0.149107 31.1432 -0.50791 4.83363 -11.0564 16.1493 
7.82629 81.6131 -83.5694 10.1275 6.36936 1.91899 -12.4538 7.60638 0.85129 4.20307 -5.70966 0.173997 7.51139 -8.91325 1.14649 -11.312 1.83946 -0.771585 -0 0 0 -0 0 0 2.19833e-013 -7.55525e-014 -9.23405e-014 80.5935 19.0356 -9.17236 -11.7111 -5.24765 21.0526 -0.0316434 -5.00823 -0.705728 -2.71322e-009 -1.05955e-010 -1.08915e-009 -4.68615e-009 -1.85512e-010 -1.89111e-009 -2.71321e-009 -1.05954e-010 -1.08916e-009 7.73091 5.47488 0.417314 -2.71322e-009 -1.05955e-010 -1.08915e-009 2.90554 0.965183 0.102902 -2.71321e-009 -1.05954e-010 -1.08915e-009 10.2786 0.731801 0.0259123 -2.71322e-009 -1.05953e-010 -1.08915e-009 2.22167 -0.733487 -0.20892 2.1981e-013 -7.55488e-014 -9.25797e-014 -80.5571 23.6789 4.26209 10.2715 -4.30816 -18.3118 0.065331 -7.2846 1.0294 -1.83744e-009 -2.55303e-010 -3.33552e-010 -3.17037e-009 -4.39e-010 -5.84072e-010 -1.83746e-009 -2.55305e-010 -3.33548e-010 -7.73091 5.47488 -0.417314 -1.83743e-009 -2.55303e-010 -3.33551e-010 -2.90554 0.965183 -0.102902 -1.83744e-009 -2.55302e-010 -3.33546e-010 -10.2786 0.731801 -0.0259123 -1.83744e-009 -2.55301e-010 -3.33546e-010 -2.22167 -0.733487 0.20892 -2.03217e-016 0 -3.88251e-019 -21.099 -39.0465 -15.3739 -1.95273 69.5797 2.52622 -6.36082 -6.45049 -22.0491 2.03217e-016 0 3.88251e-019 -13.455 -18.6419 -2.01993 0.13664 30.5924 -0.543305 5.03328 -11.4364 16.5262 
7.97709 81.5818 -82.1603 10.4441 6.19366 1.86634 -12.8114 7.59586 0.558672 4.40082 -5.73135 0.104172 7.56983 -8.73877 1.21308 -11.3594 1.91094 -0.634154 -0 0 0 -0 0 0 2.51071e-013 -9.54182e-014 -1.15941e-013 80.6222 18.5783 -9.86899 -11.5132 -5.11298 20.6715 -0.0262215 -4.61752 -0.650373 -3.23026e-009 -5.53798e-011 -1.64218e-009 -5.57884e-009 -9.88167e-011 -2.84932e-009 -3.23026e-009 -5.53786e-011 -1.64219e-009 7.73091 5.47488 0.417314 -3.23026e-009 -5.538e-011 -1.64218e-009 2.90554 0.965183 0.102902 -3.23026e-009 -5.53791e-011 -1.64219e-009 10.2786 0.731801 0.0259123 -3.23027e-009 -5.53782e-011 -1.64218e-009 2.22167 -0.733487 -0.20892 2.51025e-013 -9.54155e-014 -1.1614e-013 -79.9782 24.6183 3.14332 10.6257 -4.53036 -18.9802 0.0843856 -8.25846 1.16884 -2.22166e-009 -6.29399e-011 -1.42626e-010 -3.83375e-009 -1.05407e-010 -2.55174e-010 -2.22169e-009 -6.29416e-011 -1.42619e-010 -7.73091 5.47488 -0.417314 -2.22166e-009 -6.29401e-011 -1.42622e-010 -2.90554 0.965183 -0.102902 -2.22167e-009 -6.29391e-011 -1.42618e-010 -10.2786 0.731801 -0.0259123 -2.22166e-009 -6.29384e-011 -1.42619e-010 -2.22167 -0.733487 0.20892 -2.03217e-016 0 -3.88251e-019 -21.6064 -40.527 -15.5874 -1.7733 68.2805 2.36113 -6.6493 -6.90277 -22.4887 2.03217e-016 0 3.88251e-019 -13.7755 -17.0691 -1.87105 0.123049 29.8565 -0.570048 5.18213 -11.7259 16.8137 
8.11299 81.579 -80.7476 10.6962 6.05501 1.82403 -13.0976 7.5315 0.267515 4.58644 -5.73179 0.0361624 7.66675 -8.68941 1.29543 -11.4686 2.07064 -0.484863 -0 0 0 -0 0 0 2.18285e-013 -8.7224e-014 -1.10996e-013 80.6186 18.0275 -10.5588 -11.2952 -4.96709 20.2529 -0.0195043 -4.05273 -0.570468 -2.92189e-009 -2.32627e-011 -1.87181e-009 -5.04643e-009 -4.31202e-011 -3.24584e-009 -2.92189e-009 -2.32621e-011 -1.87182e-009 7.73091 5.47488 0.417314 -2.9219e-009 -2.32635e-011 -1.87181e-009 2.90554 0.965183 0.102902 -2.92189e-009 -2.32628e-011 -1.87181e-009 10.2786 0.731801 0.0259123 -2.9219e-009 -2.32623e-011 -1.87181e-009 2.22167 -0.733487 -0.20892 2.18182e-013 -8.72228e-014 -1.11176e-013 -79.3442 25.3454 2.01052 10.9715 -4.75264 -19.6368 0.105284 -9.20459 1.30498 -1.94715e-009 2.58807e-010 2.5247e-011 -3.36021e-009 4.51493e-010 3.61128e-011 -1.94717e-009 2.58806e-010 2.52538e-011 -7.73091 5.47488 -0.417314 -1.94715e-009 2.58806e-010 2.52488e-011 -2.90554 0.965183 -0.102902 -1.94716e-009 2.58807e-010 2.52514e-011 -10.2786 0.731801 -0.0259123 -1.94715e-009 2.58807e-010 2.52482e-011 -2.22167 -0.733487 0.20892 -2.03217e-016 0 -3.88251e-019 -21.9905 -41.8664 -15.7493 -1.58488 66.6579 2.1776 -6.85596 -7.16768 -22.928 2.03217e-016 0 3.88251e-019 -14.0166 -15.429 -1.7175 0.108431 28.9229 -0.587975 5.2753 -11.9203 17.0117 
8.23109 81.5993 -79.3366 10.9034 5.94543 1.78795 -13.3414 7.42734 -0.0192545 4.77148 -5.71984 -0.0292224 7.78818 -8.71842 1.38755 -11.6188 2.28477 -0.328218 -0 0 0 -0 0 0 1.42367e-013 -5.70018e-014 -8.80678e-014 80.5805 17.3981 -11.2441 -11.0594 -4.81125 19.8025 -0.01315 -3.33013 -0.468465 -2.0798e-009 1.83402e-011 -1.95444e-009 -3.59247e-009 2.94998e-011 -3.38662e-009 -2.0798e-009 1.834e-011 -1.95445e-009 7.73091 5.47488 0.417314 -2.0798e-009 1.83386e-011 -1.95444e-009 2.90554 0.965183 0.102902 -2.07979e-009 1.83391e-011 -1.95444e-009 10.2786 0.731801 0.0259123 -2.0798e-009 1.83392e-011 -1.95443e-009 2.22167 -0.733487 -0.20892 1.42181e-013 -5.70026e-014 -8.82418e-014 -78.6698 25.8533 0.868581 11.3129 -4.97731 -20.2897 0.127889 -10.1317 1.43915 -1.25506e-009 6.98123e-010 2.38438e-010 -2.16597e-009 1.21145e-009 4.0715e-010 -1.25508e-009 6.98123e-010 2.38444e-010 -7.73091 5.47488 -0.417314 -1.25506e-009 6.98122e-010 2.38436e-010 -2.90554 0.965183 -0.102902 -1.25507e-009 6.98122e-010 2.38437e-010 -10.2786 0.731801 -0.0259123 -1.25506e-009 6.98123e-010 2.3843e-010 -2.22167 -0.733487 0.20892 -2.03217e-016 0 -3.88251e-019 -22.2605 -43.0879 -15.8507 -1.39913 64.7346 1.98797 -6.98075 -7.23725 -23.3867 2.03217e-016 0 3.88251e-019 -14.2 -13.7344 -1.54909 0.0932908 27.8309 -0.598954 5.3216 -12.0438 17.1301 
